STARTFONT 2.1
FONT -addy-pretzel-Bold-R-Normal--12-80-100-100-M-60-ISO10646-1
SIZE 8 100 100
FONTBOUNDINGBOX 6 13 0 -3
COMMENT "(c) 2018 Addy"
STARTPROPERTIES 32
FOUNDRY "addy"
FAMILY_NAME "pretzel"
WEIGHT_NAME "Bold"
SLANT "R"
SETWIDTH_NAME "Normal"
ADD_STYLE_NAME ""
PIXEL_SIZE 12
POINT_SIZE 80
RESOLUTION_X 100
RESOLUTION_Y 100
SPACING "M"
AVERAGE_WIDTH 60
CHARSET_REGISTRY "ISO10646"
CHARSET_ENCODING "1"
FONTNAME_REGISTRY ""
CHARSET_COLLECTIONS "ISO8859-2 ISO8859-9 ISO8859-4 ISO10646-1"
FONT_NAME "pretzelbold"
FACE_NAME "pretzel bold"
COPYRIGHT "(c) 2018 Addy"
FONT_VERSION "001.000"
FONT_ASCENT 10
FONT_DESCENT 2
UNDERLINE_POSITION 0
UNDERLINE_THICKNESS 1
X_HEIGHT 4
CAP_HEIGHT 6
RAW_ASCENT 1000
RAW_DESCENT 200
NORM_SPACE 6
FIGURE_WIDTH 6
AVG_LOWERCASE_WIDTH 60
AVG_UPPERCASE_WIDTH 60
ENDPROPERTIES
CHARS 381
STARTCHAR SPACE
ENCODING 32
SWIDTH 326 0
DWIDTH 6 0
BBX 0 0 0 0
BITMAP
ENDCHAR
STARTCHAR EXCLAMATION
ENCODING 33
SWIDTH 326 0
DWIDTH 6 0
BBX 2 7 2 0
BITMAP
C0
C0
C0
C0
C0
00
C0
ENDCHAR
STARTCHAR QUOTATION
ENCODING 34
SWIDTH 326 0
DWIDTH 6 0
BBX 5 2 0 5
BITMAP
D8
D8
ENDCHAR
STARTCHAR NUMBER
ENCODING 35
SWIDTH 326 0
DWIDTH 6 0
BBX 5 5 0 1
BITMAP
50
F8
70
F8
50
ENDCHAR
STARTCHAR DOLLAR
ENCODING 36
SWIDTH 326 0
DWIDTH 6 0
BBX 5 7 0 0
BITMAP
30
78
A0
70
28
F0
60
ENDCHAR
STARTCHAR PERCENT
ENCODING 37
SWIDTH 326 0
DWIDTH 6 0
BBX 5 7 0 0
BITMAP
78
B8
D0
20
58
E8
F0
ENDCHAR
STARTCHAR AMPERSAND
ENCODING 38
SWIDTH 326 0
DWIDTH 6 0
BBX 5 7 0 0
BITMAP
60
D0
D0
60
D8
D0
68
ENDCHAR
STARTCHAR APOSTROPHE
ENCODING 39
SWIDTH 326 0
DWIDTH 6 0
BBX 2 3 2 5
BITMAP
C0
C0
C0
ENDCHAR
STARTCHAR LEFT
ENCODING 40
SWIDTH 326 0
DWIDTH 6 0
BBX 4 9 1 -1
BITMAP
30
60
60
C0
C0
C0
60
60
30
ENDCHAR
STARTCHAR RIGHT
ENCODING 41
SWIDTH 326 0
DWIDTH 6 0
BBX 4 9 1 -1
BITMAP
C0
60
60
30
30
30
60
60
C0
ENDCHAR
STARTCHAR ASTERISK
ENCODING 42
SWIDTH 326 0
DWIDTH 6 0
BBX 5 5 0 1
BITMAP
20
F8
70
F8
20
ENDCHAR
STARTCHAR PLUS
ENCODING 43
SWIDTH 326 0
DWIDTH 6 0
BBX 5 5 0 1
BITMAP
20
20
F8
20
20
ENDCHAR
STARTCHAR COMMA
ENCODING 44
SWIDTH 326 0
DWIDTH 6 0
BBX 3 4 1 -2
BITMAP
E0
E0
60
C0
ENDCHAR
STARTCHAR HYPHEN-MINUS
ENCODING 45
SWIDTH 326 0
DWIDTH 6 0
BBX 5 1 0 3
BITMAP
F8
ENDCHAR
STARTCHAR FULL
ENCODING 46
SWIDTH 326 0
DWIDTH 6 0
BBX 3 2 1 0
BITMAP
E0
E0
ENDCHAR
STARTCHAR SOLIDUS
ENCODING 47
SWIDTH 326 0
DWIDTH 6 0
BBX 6 10 0 -2
BITMAP
0C
0C
18
18
30
30
60
60
C0
C0
ENDCHAR
STARTCHAR DIGIT
ENCODING 48
SWIDTH 326 0
DWIDTH 6 0
BBX 5 7 0 0
BITMAP
70
C8
D8
F8
E8
C8
70
ENDCHAR
STARTCHAR DIGIT
ENCODING 49
SWIDTH 326 0
DWIDTH 6 0
BBX 4 7 1 0
BITMAP
60
E0
60
60
60
60
F0
ENDCHAR
STARTCHAR DIGIT
ENCODING 50
SWIDTH 326 0
DWIDTH 6 0
BBX 5 7 0 0
BITMAP
70
D8
18
30
60
C0
F8
ENDCHAR
STARTCHAR DIGIT
ENCODING 51
SWIDTH 326 0
DWIDTH 6 0
BBX 5 7 0 0
BITMAP
70
D8
18
30
18
D8
70
ENDCHAR
STARTCHAR DIGIT
ENCODING 52
SWIDTH 326 0
DWIDTH 6 0
BBX 5 7 0 0
BITMAP
10
30
70
B0
F8
30
78
ENDCHAR
STARTCHAR DIGIT
ENCODING 53
SWIDTH 326 0
DWIDTH 6 0
BBX 5 7 0 0
BITMAP
F8
C0
F0
18
18
D8
70
ENDCHAR
STARTCHAR DIGIT
ENCODING 54
SWIDTH 326 0
DWIDTH 6 0
BBX 5 7 0 0
BITMAP
70
C0
F0
D8
D8
D8
70
ENDCHAR
STARTCHAR DIGIT
ENCODING 55
SWIDTH 326 0
DWIDTH 6 0
BBX 5 7 0 0
BITMAP
F8
18
18
30
60
60
60
ENDCHAR
STARTCHAR DIGIT
ENCODING 56
SWIDTH 326 0
DWIDTH 6 0
BBX 5 7 0 0
BITMAP
70
D8
D8
70
D8
D8
70
ENDCHAR
STARTCHAR DIGIT
ENCODING 57
SWIDTH 326 0
DWIDTH 6 0
BBX 5 7 0 0
BITMAP
70
D8
D8
D8
78
18
70
ENDCHAR
STARTCHAR COLON
ENCODING 58
SWIDTH 326 0
DWIDTH 6 0
BBX 3 6 1 0
BITMAP
E0
E0
00
00
E0
E0
ENDCHAR
STARTCHAR SEMICOLON
ENCODING 59
SWIDTH 326 0
DWIDTH 6 0
BBX 3 8 1 -2
BITMAP
E0
E0
00
00
E0
E0
60
C0
ENDCHAR
STARTCHAR LESS-THAN
ENCODING 60
SWIDTH 326 0
DWIDTH 6 0
BBX 5 7 0 0
BITMAP
18
30
60
C0
60
30
18
ENDCHAR
STARTCHAR EQUALS
ENCODING 61
SWIDTH 326 0
DWIDTH 6 0
BBX 5 3 0 2
BITMAP
F8
00
F8
ENDCHAR
STARTCHAR GREATER-THAN
ENCODING 62
SWIDTH 326 0
DWIDTH 6 0
BBX 5 7 0 0
BITMAP
C0
60
30
18
30
60
C0
ENDCHAR
STARTCHAR QUESTION
ENCODING 63
SWIDTH 326 0
DWIDTH 6 0
BBX 5 7 0 0
BITMAP
70
D8
18
30
60
00
60
ENDCHAR
STARTCHAR COMMERCIAL
ENCODING 64
SWIDTH 326 0
DWIDTH 6 0
BBX 5 7 0 0
BITMAP
70
C8
D8
D8
D8
C0
70
ENDCHAR
STARTCHAR LATIN
ENCODING 65
SWIDTH 326 0
DWIDTH 6 0
BBX 5 7 0 0
BITMAP
70
D8
D8
F8
D8
D8
D8
ENDCHAR
STARTCHAR LATIN
ENCODING 66
SWIDTH 326 0
DWIDTH 6 0
BBX 5 7 0 0
BITMAP
F0
D8
D8
F0
D8
D8
F0
ENDCHAR
STARTCHAR LATIN
ENCODING 67
SWIDTH 326 0
DWIDTH 6 0
BBX 5 7 0 0
BITMAP
70
C8
C0
C0
C0
C8
70
ENDCHAR
STARTCHAR LATIN
ENCODING 68
SWIDTH 326 0
DWIDTH 6 0
BBX 5 7 0 0
BITMAP
F0
D8
D8
D8
D8
D8
F0
ENDCHAR
STARTCHAR LATIN
ENCODING 69
SWIDTH 326 0
DWIDTH 6 0
BBX 5 7 0 0
BITMAP
F8
C0
C0
F0
C0
C0
F8
ENDCHAR
STARTCHAR LATIN
ENCODING 70
SWIDTH 326 0
DWIDTH 6 0
BBX 5 7 0 0
BITMAP
F8
C0
C0
F0
C0
C0
C0
ENDCHAR
STARTCHAR LATIN
ENCODING 71
SWIDTH 326 0
DWIDTH 6 0
BBX 5 7 0 0
BITMAP
70
C8
C0
D8
D8
C8
70
ENDCHAR
STARTCHAR LATIN
ENCODING 72
SWIDTH 326 0
DWIDTH 6 0
BBX 5 7 0 0
BITMAP
D8
D8
D8
F8
D8
D8
D8
ENDCHAR
STARTCHAR LATIN
ENCODING 73
SWIDTH 326 0
DWIDTH 6 0
BBX 4 7 1 0
BITMAP
F0
60
60
60
60
60
F0
ENDCHAR
STARTCHAR LATIN
ENCODING 74
SWIDTH 326 0
DWIDTH 6 0
BBX 5 7 0 0
BITMAP
38
18
18
18
D8
D8
70
ENDCHAR
STARTCHAR LATIN
ENCODING 75
SWIDTH 326 0
DWIDTH 6 0
BBX 5 7 0 0
BITMAP
D8
F0
E0
C0
E0
F0
D8
ENDCHAR
STARTCHAR LATIN
ENCODING 76
SWIDTH 326 0
DWIDTH 6 0
BBX 5 7 0 0
BITMAP
C0
C0
C0
C0
C0
C0
F8
ENDCHAR
STARTCHAR LATIN
ENCODING 77
SWIDTH 326 0
DWIDTH 6 0
BBX 5 7 0 0
BITMAP
88
D8
F8
D8
D8
D8
D8
ENDCHAR
STARTCHAR LATIN
ENCODING 78
SWIDTH 326 0
DWIDTH 6 0
BBX 5 7 0 0
BITMAP
98
D8
F8
F8
D8
C8
C8
ENDCHAR
STARTCHAR LATIN
ENCODING 79
SWIDTH 326 0
DWIDTH 6 0
BBX 5 7 0 0
BITMAP
70
D8
D8
D8
D8
D8
70
ENDCHAR
STARTCHAR LATIN
ENCODING 80
SWIDTH 326 0
DWIDTH 6 0
BBX 5 7 0 0
BITMAP
F0
D8
D8
F0
C0
C0
C0
ENDCHAR
STARTCHAR LATIN
ENCODING 81
SWIDTH 326 0
DWIDTH 6 0
BBX 5 8 0 -1
BITMAP
70
D8
D8
D8
D8
D8
70
18
ENDCHAR
STARTCHAR LATIN
ENCODING 82
SWIDTH 326 0
DWIDTH 6 0
BBX 5 7 0 0
BITMAP
F0
D8
D8
F0
D8
D8
D8
ENDCHAR
STARTCHAR LATIN
ENCODING 83
SWIDTH 326 0
DWIDTH 6 0
BBX 5 7 0 0
BITMAP
70
D8
C0
70
18
D8
70
ENDCHAR
STARTCHAR LATIN
ENCODING 84
SWIDTH 326 0
DWIDTH 6 0
BBX 6 7 0 0
BITMAP
FC
30
30
30
30
30
30
ENDCHAR
STARTCHAR LATIN
ENCODING 85
SWIDTH 326 0
DWIDTH 6 0
BBX 5 7 0 0
BITMAP
D8
D8
D8
D8
D8
D8
70
ENDCHAR
STARTCHAR LATIN
ENCODING 86
SWIDTH 326 0
DWIDTH 6 0
BBX 5 7 0 0
BITMAP
D8
D8
D8
D8
D8
70
20
ENDCHAR
STARTCHAR LATIN
ENCODING 87
SWIDTH 326 0
DWIDTH 6 0
BBX 5 7 0 0
BITMAP
D8
D8
D8
D8
F8
F8
50
ENDCHAR
STARTCHAR LATIN
ENCODING 88
SWIDTH 326 0
DWIDTH 6 0
BBX 5 7 0 0
BITMAP
D8
D8
70
20
70
D8
D8
ENDCHAR
STARTCHAR LATIN
ENCODING 89
SWIDTH 326 0
DWIDTH 6 0
BBX 6 7 0 0
BITMAP
CC
CC
68
70
30
30
30
ENDCHAR
STARTCHAR LATIN
ENCODING 90
SWIDTH 326 0
DWIDTH 6 0
BBX 5 7 0 0
BITMAP
F8
18
38
70
E0
C0
F8
ENDCHAR
STARTCHAR LEFT
ENCODING 91
SWIDTH 326 0
DWIDTH 6 0
BBX 4 9 1 -1
BITMAP
F0
C0
C0
C0
C0
C0
C0
C0
F0
ENDCHAR
STARTCHAR REVERSE
ENCODING 92
SWIDTH 326 0
DWIDTH 6 0
BBX 6 10 0 -2
BITMAP
C0
C0
60
60
30
30
18
18
0C
0C
ENDCHAR
STARTCHAR RIGHT
ENCODING 93
SWIDTH 326 0
DWIDTH 6 0
BBX 4 9 1 -1
BITMAP
F0
30
30
30
30
30
30
30
F0
ENDCHAR
STARTCHAR CIRCUMFLEX
ENCODING 94
SWIDTH 326 0
DWIDTH 6 0
BBX 5 3 0 5
BITMAP
20
70
D8
ENDCHAR
STARTCHAR LOW
ENCODING 95
SWIDTH 326 0
DWIDTH 6 0
BBX 6 1 0 0
BITMAP
FC
ENDCHAR
STARTCHAR GRAVE
ENCODING 96
SWIDTH 326 0
DWIDTH 6 0
BBX 3 2 1 5
BITMAP
C0
60
ENDCHAR
STARTCHAR LATIN
ENCODING 97
SWIDTH 326 0
DWIDTH 6 0
BBX 5 5 0 0
BITMAP
70
18
78
D8
78
ENDCHAR
STARTCHAR LATIN
ENCODING 98
SWIDTH 326 0
DWIDTH 6 0
BBX 5 7 0 0
BITMAP
C0
C0
F0
D8
D8
D8
B0
ENDCHAR
STARTCHAR LATIN
ENCODING 99
SWIDTH 326 0
DWIDTH 6 0
BBX 5 5 0 0
BITMAP
70
D8
C0
C0
78
ENDCHAR
STARTCHAR LATIN
ENCODING 100
SWIDTH 326 0
DWIDTH 6 0
BBX 5 7 0 0
BITMAP
18
18
78
D8
D8
D8
68
ENDCHAR
STARTCHAR LATIN
ENCODING 101
SWIDTH 326 0
DWIDTH 6 0
BBX 5 5 0 0
BITMAP
70
D8
F8
C0
78
ENDCHAR
STARTCHAR LATIN
ENCODING 102
SWIDTH 326 0
DWIDTH 6 0
BBX 5 7 0 0
BITMAP
30
68
60
F0
60
60
60
ENDCHAR
STARTCHAR LATIN
ENCODING 103
SWIDTH 326 0
DWIDTH 6 0
BBX 5 7 0 -2
BITMAP
78
D8
D8
D8
78
18
70
ENDCHAR
STARTCHAR LATIN
ENCODING 104
SWIDTH 326 0
DWIDTH 6 0
BBX 5 7 0 0
BITMAP
C0
C0
F0
D8
D8
D8
D8
ENDCHAR
STARTCHAR LATIN
ENCODING 105
SWIDTH 326 0
DWIDTH 6 0
BBX 4 7 1 0
BITMAP
60
00
E0
60
60
60
F0
ENDCHAR
STARTCHAR LATIN
ENCODING 106
SWIDTH 326 0
DWIDTH 6 0
BBX 5 9 0 -2
BITMAP
18
00
38
18
18
18
98
98
70
ENDCHAR
STARTCHAR LATIN
ENCODING 107
SWIDTH 326 0
DWIDTH 6 0
BBX 5 7 0 0
BITMAP
C0
C0
D8
F0
E0
F0
D8
ENDCHAR
STARTCHAR LATIN
ENCODING 108
SWIDTH 326 0
DWIDTH 6 0
BBX 5 7 0 0
BITMAP
E0
60
60
60
60
60
F8
ENDCHAR
STARTCHAR LATIN
ENCODING 109
SWIDTH 326 0
DWIDTH 6 0
BBX 5 5 0 0
BITMAP
F0
F8
A8
A8
A8
ENDCHAR
STARTCHAR LATIN
ENCODING 110
SWIDTH 326 0
DWIDTH 6 0
BBX 5 5 0 0
BITMAP
B0
D8
D8
D8
D8
ENDCHAR
STARTCHAR LATIN
ENCODING 111
SWIDTH 326 0
DWIDTH 6 0
BBX 5 5 0 0
BITMAP
70
D8
D8
D8
70
ENDCHAR
STARTCHAR LATIN
ENCODING 112
SWIDTH 326 0
DWIDTH 6 0
BBX 5 7 0 -2
BITMAP
B0
D8
D8
D8
F0
C0
C0
ENDCHAR
STARTCHAR LATIN
ENCODING 113
SWIDTH 326 0
DWIDTH 6 0
BBX 5 7 0 -2
BITMAP
68
D8
D8
D8
78
18
18
ENDCHAR
STARTCHAR LATIN
ENCODING 114
SWIDTH 326 0
DWIDTH 6 0
BBX 5 5 0 0
BITMAP
B0
D8
C0
C0
C0
ENDCHAR
STARTCHAR LATIN
ENCODING 115
SWIDTH 326 0
DWIDTH 6 0
BBX 5 5 0 0
BITMAP
78
E0
70
38
F0
ENDCHAR
STARTCHAR LATIN
ENCODING 116
SWIDTH 326 0
DWIDTH 6 0
BBX 5 7 0 0
BITMAP
60
60
F8
60
60
68
30
ENDCHAR
STARTCHAR LATIN
ENCODING 117
SWIDTH 326 0
DWIDTH 6 0
BBX 5 5 0 0
BITMAP
D8
D8
D8
D8
68
ENDCHAR
STARTCHAR LATIN
ENCODING 118
SWIDTH 326 0
DWIDTH 6 0
BBX 5 5 0 0
BITMAP
D8
D8
D8
70
20
ENDCHAR
STARTCHAR LATIN
ENCODING 119
SWIDTH 326 0
DWIDTH 6 0
BBX 5 5 0 0
BITMAP
D8
D8
F8
F8
50
ENDCHAR
STARTCHAR LATIN
ENCODING 120
SWIDTH 326 0
DWIDTH 6 0
BBX 5 5 0 0
BITMAP
D8
70
20
70
D8
ENDCHAR
STARTCHAR LATIN
ENCODING 121
SWIDTH 326 0
DWIDTH 6 0
BBX 5 7 0 -2
BITMAP
D8
D8
D8
F8
68
18
70
ENDCHAR
STARTCHAR LATIN
ENCODING 122
SWIDTH 326 0
DWIDTH 6 0
BBX 5 5 0 0
BITMAP
F8
38
70
E0
F8
ENDCHAR
STARTCHAR LEFT
ENCODING 123
SWIDTH 326 0
DWIDTH 6 0
BBX 5 9 0 -1
BITMAP
18
30
30
30
E0
30
30
30
18
ENDCHAR
STARTCHAR VERTICAL
ENCODING 124
SWIDTH 326 0
DWIDTH 6 0
BBX 2 10 2 -2
BITMAP
C0
C0
C0
C0
C0
C0
C0
C0
C0
C0
ENDCHAR
STARTCHAR RIGHT
ENCODING 125
SWIDTH 326 0
DWIDTH 6 0
BBX 5 9 0 -1
BITMAP
C0
60
60
60
38
60
60
60
C0
ENDCHAR
STARTCHAR TILDE
ENCODING 126
SWIDTH 326 0
DWIDTH 6 0
BBX 5 3 0 2
BITMAP
68
F8
B0
ENDCHAR
STARTCHAR NO-BREAK
ENCODING 160
SWIDTH 326 0
DWIDTH 6 0
BBX 0 0 0 0
BITMAP
ENDCHAR
STARTCHAR INVERTED
ENCODING 161
SWIDTH 326 0
DWIDTH 6 0
BBX 2 7 2 0
BITMAP
C0
00
C0
C0
C0
C0
C0
ENDCHAR
STARTCHAR CENT
ENCODING 162
SWIDTH 326 0
DWIDTH 6 0
BBX 5 7 0 -1
BITMAP
20
70
E8
E0
E8
70
20
ENDCHAR
STARTCHAR POUND
ENCODING 163
SWIDTH 326 0
DWIDTH 6 0
BBX 5 8 0 0
BITMAP
30
60
60
F0
60
60
68
F0
ENDCHAR
STARTCHAR CURRENCY
ENCODING 164
SWIDTH 326 0
DWIDTH 6 0
BBX 5 5 0 1
BITMAP
D8
70
50
70
D8
ENDCHAR
STARTCHAR YEN
ENCODING 165
SWIDTH 326 0
DWIDTH 6 0
BBX 5 8 0 -1
BITMAP
C8
C8
70
F8
20
F8
20
20
ENDCHAR
STARTCHAR BROKEN
ENCODING 166
SWIDTH 326 0
DWIDTH 6 0
BBX 2 10 2 -2
BITMAP
C0
C0
C0
C0
00
00
C0
C0
C0
C0
ENDCHAR
STARTCHAR SECTION
ENCODING 167
SWIDTH 326 0
DWIDTH 6 0
BBX 5 10 0 -1
BITMAP
70
C8
68
B0
D8
68
38
90
C8
70
ENDCHAR
STARTCHAR DIAERESIS
ENCODING 168
SWIDTH 326 0
DWIDTH 6 0
BBX 5 1 0 6
BITMAP
D8
ENDCHAR
STARTCHAR COPYRIGHT
ENCODING 169
SWIDTH 326 0
DWIDTH 6 0
BBX 5 8 0 -1
BITMAP
F0
08
68
C8
C8
68
08
F0
ENDCHAR
STARTCHAR FEMININE
ENCODING 170
SWIDTH 326 0
DWIDTH 6 0
BBX 4 6 1 1
BITMAP
70
D0
F0
50
00
F0
ENDCHAR
STARTCHAR LEFT-POINTING
ENCODING 171
SWIDTH 326 0
DWIDTH 6 0
BBX 6 4 0 1
BITMAP
6C
D8
D8
6C
ENDCHAR
STARTCHAR NOT
ENCODING 172
SWIDTH 326 0
DWIDTH 6 0
BBX 5 3 0 1
BITMAP
F8
18
18
ENDCHAR
STARTCHAR SOFT
ENCODING 173
SWIDTH 326 0
DWIDTH 6 0
BBX 3 1 1 2
BITMAP
E0
ENDCHAR
STARTCHAR REGISTERED
ENCODING 174
SWIDTH 326 0
DWIDTH 6 0
BBX 5 8 0 -1
BITMAP
F0
08
E8
D8
E8
D8
08
F0
ENDCHAR
STARTCHAR MACRON
ENCODING 175
SWIDTH 326 0
DWIDTH 6 0
BBX 4 1 1 7
BITMAP
F0
ENDCHAR
STARTCHAR DEGREE
ENCODING 176
SWIDTH 326 0
DWIDTH 6 0
BBX 4 4 1 5
BITMAP
60
D0
D0
60
ENDCHAR
STARTCHAR PLUS-MINUS
ENCODING 177
SWIDTH 326 0
DWIDTH 6 0
BBX 6 7 0 0
BITMAP
30
30
FC
30
30
00
FC
ENDCHAR
STARTCHAR SUPERSCRIPT
ENCODING 178
SWIDTH 326 0
DWIDTH 6 0
BBX 3 5 1 3
BITMAP
C0
60
40
C0
E0
ENDCHAR
STARTCHAR SUPERSCRIPT
ENCODING 179
SWIDTH 326 0
DWIDTH 6 0
BBX 3 5 1 3
BITMAP
C0
60
C0
60
C0
ENDCHAR
STARTCHAR ACUTE
ENCODING 180
SWIDTH 326 0
DWIDTH 6 0
BBX 4 3 1 5
BITMAP
30
60
C0
ENDCHAR
STARTCHAR MICRO
ENCODING 181
SWIDTH 326 0
DWIDTH 6 0
BBX 5 7 0 -2
BITMAP
D0
D0
D0
D0
E8
C0
C0
ENDCHAR
STARTCHAR PILCROW
ENCODING 182
SWIDTH 326 0
DWIDTH 6 0
BBX 6 9 0 -1
BITMAP
7C
E8
E8
E8
78
28
28
28
2C
ENDCHAR
STARTCHAR MIDDLE
ENCODING 183
SWIDTH 326 0
DWIDTH 6 0
BBX 3 2 1 2
BITMAP
E0
E0
ENDCHAR
STARTCHAR CEDILLA
ENCODING 184
SWIDTH 326 0
DWIDTH 6 0
BBX 3 3 2 -3
BITMAP
C0
60
C0
ENDCHAR
STARTCHAR SUPERSCRIPT
ENCODING 185
SWIDTH 326 0
DWIDTH 6 0
BBX 4 5 1 3
BITMAP
E0
60
60
60
F0
ENDCHAR
STARTCHAR MASCULINE
ENCODING 186
SWIDTH 326 0
DWIDTH 6 0
BBX 4 6 0 1
BITMAP
60
D0
D0
60
00
F0
ENDCHAR
STARTCHAR RIGHT-POINTING
ENCODING 187
SWIDTH 326 0
DWIDTH 6 0
BBX 6 4 0 1
BITMAP
D8
6C
6C
D8
ENDCHAR
STARTCHAR VULGAR
ENCODING 188
SWIDTH 326 0
DWIDTH 6 0
BBX 5 8 0 0
BITMAP
C0
48
58
30
68
D8
B8
08
ENDCHAR
STARTCHAR VULGAR
ENCODING 189
SWIDTH 326 0
DWIDTH 6 0
BBX 5 9 0 0
BITMAP
C0
48
58
30
60
F0
88
10
38
ENDCHAR
STARTCHAR VULGAR
ENCODING 190
SWIDTH 326 0
DWIDTH 6 0
BBX 5 9 0 0
BITMAP
C0
40
C8
58
B0
68
D8
B8
08
ENDCHAR
STARTCHAR INVERTED
ENCODING 191
SWIDTH 326 0
DWIDTH 6 0
BBX 5 7 0 0
BITMAP
30
00
30
60
C0
D8
70
ENDCHAR
STARTCHAR LATIN
ENCODING 192
SWIDTH 326 0
DWIDTH 6 0
BBX 5 9 0 0
BITMAP
60
30
70
D8
D8
F8
D8
D8
D8
ENDCHAR
STARTCHAR LATIN
ENCODING 193
SWIDTH 326 0
DWIDTH 6 0
BBX 5 9 0 0
BITMAP
30
60
70
D8
D8
F8
D8
D8
D8
ENDCHAR
STARTCHAR LATIN
ENCODING 194
SWIDTH 326 0
DWIDTH 6 0
BBX 5 9 0 0
BITMAP
20
50
70
D8
D8
F8
D8
D8
D8
ENDCHAR
STARTCHAR LATIN
ENCODING 195
SWIDTH 326 0
DWIDTH 6 0
BBX 5 9 0 0
BITMAP
68
B0
70
D8
D8
F8
D8
D8
D8
ENDCHAR
STARTCHAR LATIN
ENCODING 196
SWIDTH 326 0
DWIDTH 6 0
BBX 5 9 0 0
BITMAP
50
00
70
D8
D8
F8
D8
D8
D8
ENDCHAR
STARTCHAR LATIN
ENCODING 197
SWIDTH 326 0
DWIDTH 6 0
BBX 5 10 0 0
BITMAP
20
50
20
70
D8
D8
F8
D8
D8
D8
ENDCHAR
STARTCHAR LATIN
ENCODING 198
SWIDTH 326 0
DWIDTH 6 0
BBX 5 7 0 0
BITMAP
78
D0
D0
F8
D0
D0
D8
ENDCHAR
STARTCHAR LATIN
ENCODING 199
SWIDTH 326 0
DWIDTH 6 0
BBX 5 9 0 -2
BITMAP
70
D8
C0
C0
C0
D8
70
30
60
ENDCHAR
STARTCHAR LATIN
ENCODING 200
SWIDTH 326 0
DWIDTH 6 0
BBX 5 9 0 0
BITMAP
40
20
F8
C0
C0
F0
C0
C0
F8
ENDCHAR
STARTCHAR LATIN
ENCODING 201
SWIDTH 326 0
DWIDTH 6 0
BBX 5 9 0 0
BITMAP
10
20
F8
C0
C0
F0
C0
C0
F8
ENDCHAR
STARTCHAR LATIN
ENCODING 202
SWIDTH 326 0
DWIDTH 6 0
BBX 5 9 0 0
BITMAP
20
50
F8
C0
C0
F0
C0
C0
F8
ENDCHAR
STARTCHAR LATIN
ENCODING 203
SWIDTH 326 0
DWIDTH 6 0
BBX 5 9 0 0
BITMAP
50
00
F8
C0
C0
F0
C0
C0
F8
ENDCHAR
STARTCHAR LATIN
ENCODING 204
SWIDTH 326 0
DWIDTH 6 0
BBX 4 9 1 0
BITMAP
60
30
F0
60
60
60
60
60
F0
ENDCHAR
STARTCHAR LATIN
ENCODING 205
SWIDTH 326 0
DWIDTH 6 0
BBX 4 9 1 0
BITMAP
60
C0
F0
60
60
60
60
60
F0
ENDCHAR
STARTCHAR LATIN
ENCODING 206
SWIDTH 326 0
DWIDTH 6 0
BBX 4 9 1 0
BITMAP
40
A0
F0
60
60
60
60
60
F0
ENDCHAR
STARTCHAR LATIN
ENCODING 207
SWIDTH 326 0
DWIDTH 6 0
BBX 4 9 1 0
BITMAP
A0
00
F0
60
60
60
60
60
F0
ENDCHAR
STARTCHAR LATIN
ENCODING 208
SWIDTH 326 0
DWIDTH 6 0
BBX 5 7 0 0
BITMAP
70
68
68
F8
68
68
70
ENDCHAR
STARTCHAR LATIN
ENCODING 209
SWIDTH 326 0
DWIDTH 6 0
BBX 5 9 0 0
BITMAP
68
B0
C8
C8
C8
E8
E8
D8
D8
ENDCHAR
STARTCHAR LATIN
ENCODING 210
SWIDTH 326 0
DWIDTH 6 0
BBX 5 9 0 0
BITMAP
40
20
70
D8
D8
D8
D8
D8
70
ENDCHAR
STARTCHAR LATIN
ENCODING 211
SWIDTH 326 0
DWIDTH 6 0
BBX 5 10 0 0
BITMAP
18
30
00
70
D8
D8
D8
D8
D8
70
ENDCHAR
STARTCHAR LATIN
ENCODING 212
SWIDTH 326 0
DWIDTH 6 0
BBX 5 9 0 0
BITMAP
20
50
70
D8
D8
D8
D8
D8
70
ENDCHAR
STARTCHAR LATIN
ENCODING 213
SWIDTH 326 0
DWIDTH 6 0
BBX 5 9 0 0
BITMAP
68
B0
70
D8
D8
D8
D8
D8
70
ENDCHAR
STARTCHAR LATIN
ENCODING 214
SWIDTH 326 0
DWIDTH 6 0
BBX 5 9 0 0
BITMAP
50
00
70
D8
D8
D8
D8
D8
70
ENDCHAR
STARTCHAR MULTIPLICATION
ENCODING 215
SWIDTH 326 0
DWIDTH 6 0
BBX 5 5 0 1
BITMAP
D8
70
20
70
D8
ENDCHAR
STARTCHAR LATIN
ENCODING 216
SWIDTH 326 0
DWIDTH 6 0
BBX 5 9 0 -1
BITMAP
08
70
D8
F8
F8
F8
D8
70
80
ENDCHAR
STARTCHAR LATIN
ENCODING 217
SWIDTH 326 0
DWIDTH 6 0
BBX 5 9 0 0
BITMAP
60
30
00
D8
D8
D8
D8
D8
70
ENDCHAR
STARTCHAR LATIN
ENCODING 218
SWIDTH 326 0
DWIDTH 6 0
BBX 5 10 0 0
BITMAP
30
60
00
D8
D8
D8
D8
D8
D8
70
ENDCHAR
STARTCHAR LATIN
ENCODING 219
SWIDTH 326 0
DWIDTH 6 0
BBX 5 9 0 0
BITMAP
20
50
D8
D8
D8
D8
D8
D8
70
ENDCHAR
STARTCHAR LATIN
ENCODING 220
SWIDTH 326 0
DWIDTH 6 0
BBX 5 9 0 0
BITMAP
50
00
D8
D8
D8
D8
D8
D8
70
ENDCHAR
STARTCHAR LATIN
ENCODING 221
SWIDTH 326 0
DWIDTH 6 0
BBX 6 9 0 0
BITMAP
18
30
EC
EC
68
78
30
30
30
ENDCHAR
STARTCHAR LATIN
ENCODING 222
SWIDTH 326 0
DWIDTH 6 0
BBX 5 9 0 -2
BITMAP
F0
60
70
68
68
68
70
60
F0
ENDCHAR
STARTCHAR LATIN
ENCODING 223
SWIDTH 326 0
DWIDTH 6 0
BBX 5 8 0 0
BITMAP
70
D8
D8
F0
D8
D8
D8
B0
ENDCHAR
STARTCHAR LATIN
ENCODING 224
SWIDTH 326 0
DWIDTH 6 0
BBX 5 8 0 0
BITMAP
60
30
00
70
18
78
D8
78
ENDCHAR
STARTCHAR LATIN
ENCODING 225
SWIDTH 326 0
DWIDTH 6 0
BBX 5 8 0 0
BITMAP
30
60
00
70
18
78
D8
78
ENDCHAR
STARTCHAR LATIN
ENCODING 226
SWIDTH 326 0
DWIDTH 6 0
BBX 5 8 0 0
BITMAP
20
50
00
70
18
78
D8
78
ENDCHAR
STARTCHAR LATIN
ENCODING 227
SWIDTH 326 0
DWIDTH 6 0
BBX 5 8 0 0
BITMAP
68
B0
00
70
18
78
D8
78
ENDCHAR
STARTCHAR LATIN
ENCODING 228
SWIDTH 326 0
DWIDTH 6 0
BBX 5 7 0 0
BITMAP
D8
00
70
18
78
D8
78
ENDCHAR
STARTCHAR LATIN
ENCODING 229
SWIDTH 326 0
DWIDTH 6 0
BBX 5 9 0 0
BITMAP
20
50
20
00
70
18
78
D8
78
ENDCHAR
STARTCHAR LATIN
ENCODING 230
SWIDTH 326 0
DWIDTH 6 0
BBX 6 5 0 0
BITMAP
78
D4
DC
D0
7C
ENDCHAR
STARTCHAR LATIN
ENCODING 231
SWIDTH 326 0
DWIDTH 6 0
BBX 5 7 0 -2
BITMAP
70
D8
C0
C0
78
20
40
ENDCHAR
STARTCHAR LATIN
ENCODING 232
SWIDTH 326 0
DWIDTH 6 0
BBX 5 8 0 0
BITMAP
40
20
00
70
D8
F8
C0
78
ENDCHAR
STARTCHAR LATIN
ENCODING 233
SWIDTH 326 0
DWIDTH 6 0
BBX 5 8 0 0
BITMAP
10
20
00
70
D8
F8
C0
78
ENDCHAR
STARTCHAR LATIN
ENCODING 234
SWIDTH 326 0
DWIDTH 6 0
BBX 5 8 0 0
BITMAP
20
50
00
70
D8
F8
C0
78
ENDCHAR
STARTCHAR LATIN
ENCODING 235
SWIDTH 326 0
DWIDTH 6 0
BBX 5 7 0 0
BITMAP
50
00
70
D8
F8
C0
78
ENDCHAR
STARTCHAR LATIN
ENCODING 236
SWIDTH 326 0
DWIDTH 6 0
BBX 4 8 1 0
BITMAP
C0
60
00
E0
60
60
60
70
ENDCHAR
STARTCHAR LATIN
ENCODING 237
SWIDTH 326 0
DWIDTH 6 0
BBX 4 8 1 0
BITMAP
30
60
00
E0
60
60
60
70
ENDCHAR
STARTCHAR LATIN
ENCODING 238
SWIDTH 326 0
DWIDTH 6 0
BBX 4 8 1 0
BITMAP
60
F0
00
E0
60
60
60
70
ENDCHAR
STARTCHAR LATIN
ENCODING 239
SWIDTH 326 0
DWIDTH 6 0
BBX 5 7 0 0
BITMAP
D8
00
70
30
30
30
38
ENDCHAR
STARTCHAR LATIN
ENCODING 240
SWIDTH 326 0
DWIDTH 6 0
BBX 5 9 0 0
BITMAP
D0
60
F0
30
78
D8
D8
D8
70
ENDCHAR
STARTCHAR LATIN
ENCODING 241
SWIDTH 326 0
DWIDTH 6 0
BBX 5 8 0 0
BITMAP
68
B0
00
B0
D8
D8
D8
D8
ENDCHAR
STARTCHAR LATIN
ENCODING 242
SWIDTH 326 0
DWIDTH 6 0
BBX 5 8 0 0
BITMAP
60
30
00
70
D8
D8
D8
70
ENDCHAR
STARTCHAR LATIN
ENCODING 243
SWIDTH 326 0
DWIDTH 6 0
BBX 5 8 0 0
BITMAP
30
60
00
70
D8
D8
D8
70
ENDCHAR
STARTCHAR LATIN
ENCODING 244
SWIDTH 326 0
DWIDTH 6 0
BBX 5 8 0 0
BITMAP
20
50
00
70
D8
D8
D8
70
ENDCHAR
STARTCHAR LATIN
ENCODING 245
SWIDTH 326 0
DWIDTH 6 0
BBX 5 8 0 0
BITMAP
68
B0
00
70
D8
D8
D8
70
ENDCHAR
STARTCHAR LATIN
ENCODING 246
SWIDTH 326 0
DWIDTH 6 0
BBX 5 7 0 0
BITMAP
50
00
70
D8
D8
D8
70
ENDCHAR
STARTCHAR DIVISION
ENCODING 247
SWIDTH 326 0
DWIDTH 6 0
BBX 6 5 0 1
BITMAP
30
00
FC
00
30
ENDCHAR
STARTCHAR LATIN
ENCODING 248
SWIDTH 326 0
DWIDTH 6 0
BBX 5 5 0 0
BITMAP
78
D8
F8
D8
F0
ENDCHAR
STARTCHAR LATIN
ENCODING 249
SWIDTH 326 0
DWIDTH 6 0
BBX 5 8 0 0
BITMAP
60
30
00
D8
D8
D8
D8
68
ENDCHAR
STARTCHAR LATIN
ENCODING 250
SWIDTH 326 0
DWIDTH 6 0
BBX 5 8 0 0
BITMAP
30
60
00
D8
D8
D8
D8
68
ENDCHAR
STARTCHAR LATIN
ENCODING 251
SWIDTH 326 0
DWIDTH 6 0
BBX 5 8 0 0
BITMAP
20
50
00
D8
D8
D8
D8
68
ENDCHAR
STARTCHAR LATIN
ENCODING 252
SWIDTH 326 0
DWIDTH 6 0
BBX 5 7 0 0
BITMAP
50
00
D8
D8
D8
D8
68
ENDCHAR
STARTCHAR LATIN
ENCODING 253
SWIDTH 326 0
DWIDTH 6 0
BBX 5 10 0 -2
BITMAP
10
20
00
D8
D8
D8
D8
78
18
70
ENDCHAR
STARTCHAR LATIN
ENCODING 254
SWIDTH 326 0
DWIDTH 6 0
BBX 5 9 0 -2
BITMAP
C0
C0
F0
D8
D8
D8
F0
C0
C0
ENDCHAR
STARTCHAR LATIN
ENCODING 255
SWIDTH 326 0
DWIDTH 6 0
BBX 5 9 0 -2
BITMAP
50
00
D8
D8
D8
D8
78
18
70
ENDCHAR
STARTCHAR LATIN
ENCODING 256
SWIDTH 326 0
DWIDTH 6 0
BBX 5 9 0 0
BITMAP
F8
00
70
D8
D8
F8
D8
D8
D8
ENDCHAR
STARTCHAR LATIN
ENCODING 257
SWIDTH 326 0
DWIDTH 6 0
BBX 5 7 0 0
BITMAP
F8
00
70
18
78
D8
78
ENDCHAR
STARTCHAR LATIN
ENCODING 258
SWIDTH 326 0
DWIDTH 6 0
BBX 5 9 0 0
BITMAP
88
70
00
70
D8
D8
F8
D8
D8
ENDCHAR
STARTCHAR LATIN
ENCODING 259
SWIDTH 326 0
DWIDTH 6 0
BBX 5 8 0 0
BITMAP
D8
70
00
70
18
78
D8
78
ENDCHAR
STARTCHAR LATIN
ENCODING 260
SWIDTH 326 0
DWIDTH 6 0
BBX 6 8 0 -1
BITMAP
70
D8
D8
F8
D8
D8
D8
0C
ENDCHAR
STARTCHAR LATIN
ENCODING 261
SWIDTH 326 0
DWIDTH 6 0
BBX 6 6 0 -1
BITMAP
70
18
78
D8
78
0C
ENDCHAR
STARTCHAR LATIN
ENCODING 262
SWIDTH 326 0
DWIDTH 6 0
BBX 5 9 0 0
BITMAP
10
20
70
D8
C0
C0
C0
D8
70
ENDCHAR
STARTCHAR LATIN
ENCODING 263
SWIDTH 326 0
DWIDTH 6 0
BBX 5 8 0 0
BITMAP
10
20
00
70
D8
C0
C0
78
ENDCHAR
STARTCHAR LATIN
ENCODING 264
SWIDTH 326 0
DWIDTH 6 0
BBX 5 9 0 0
BITMAP
20
50
70
D8
C0
C0
C0
D8
70
ENDCHAR
STARTCHAR LATIN
ENCODING 265
SWIDTH 326 0
DWIDTH 6 0
BBX 5 8 0 0
BITMAP
20
50
00
70
D8
C0
C0
78
ENDCHAR
STARTCHAR LATIN
ENCODING 266
SWIDTH 326 0
DWIDTH 6 0
BBX 5 9 0 0
BITMAP
20
00
70
D8
C0
C0
C0
D8
70
ENDCHAR
STARTCHAR LATIN
ENCODING 267
SWIDTH 326 0
DWIDTH 6 0
BBX 5 7 0 0
BITMAP
20
00
70
D8
C0
C0
78
ENDCHAR
STARTCHAR LATIN
ENCODING 268
SWIDTH 326 0
DWIDTH 6 0
BBX 5 9 0 0
BITMAP
50
20
70
D8
C0
C0
C0
D8
70
ENDCHAR
STARTCHAR LATIN
ENCODING 269
SWIDTH 326 0
DWIDTH 6 0
BBX 5 8 0 0
BITMAP
50
20
00
70
D8
C0
C0
78
ENDCHAR
STARTCHAR LATIN
ENCODING 270
SWIDTH 326 0
DWIDTH 6 0
BBX 5 9 0 0
BITMAP
50
20
F0
D8
D8
D8
D8
D8
F0
ENDCHAR
STARTCHAR LATIN
ENCODING 271
SWIDTH 326 0
DWIDTH 6 0
BBX 6 8 0 0
BITMAP
04
1C
18
78
D8
D8
D8
78
ENDCHAR
STARTCHAR LATIN
ENCODING 272
SWIDTH 326 0
DWIDTH 6 0
BBX 5 7 0 0
BITMAP
70
68
68
F8
68
68
70
ENDCHAR
STARTCHAR LATIN
ENCODING 273
SWIDTH 326 0
DWIDTH 6 0
BBX 6 7 0 0
BITMAP
3C
18
78
D8
D8
D8
78
ENDCHAR
STARTCHAR LATIN
ENCODING 274
SWIDTH 326 0
DWIDTH 6 0
BBX 5 9 0 0
BITMAP
70
00
F8
C0
C0
F0
C0
C0
F8
ENDCHAR
STARTCHAR LATIN
ENCODING 275
SWIDTH 326 0
DWIDTH 6 0
BBX 5 7 0 0
BITMAP
F8
00
70
D8
F8
C0
78
ENDCHAR
STARTCHAR LATIN
ENCODING 276
SWIDTH 326 0
DWIDTH 6 0
BBX 5 10 0 0
BITMAP
88
70
00
F8
C0
C0
F0
C0
C0
F8
ENDCHAR
STARTCHAR LATIN
ENCODING 277
SWIDTH 326 0
DWIDTH 6 0
BBX 5 8 0 0
BITMAP
88
70
00
70
D8
F8
C0
78
ENDCHAR
STARTCHAR LATIN
ENCODING 278
SWIDTH 326 0
DWIDTH 6 0
BBX 5 9 0 0
BITMAP
30
00
F8
C0
C0
F0
C0
C0
F8
ENDCHAR
STARTCHAR LATIN
ENCODING 279
SWIDTH 326 0
DWIDTH 6 0
BBX 5 7 0 0
BITMAP
30
00
70
D8
F8
C0
78
ENDCHAR
STARTCHAR LATIN
ENCODING 280
SWIDTH 326 0
DWIDTH 6 0
BBX 6 8 0 -1
BITMAP
F8
C0
C0
F0
C0
C0
F8
0C
ENDCHAR
STARTCHAR LATIN
ENCODING 281
SWIDTH 326 0
DWIDTH 6 0
BBX 5 7 0 -2
BITMAP
70
D8
F8
C0
78
30
18
ENDCHAR
STARTCHAR LATIN
ENCODING 282
SWIDTH 326 0
DWIDTH 6 0
BBX 5 9 0 0
BITMAP
50
20
F8
C0
C0
F0
C0
C0
F8
ENDCHAR
STARTCHAR LATIN
ENCODING 283
SWIDTH 326 0
DWIDTH 6 0
BBX 5 8 0 0
BITMAP
50
20
00
70
D8
F8
C0
78
ENDCHAR
STARTCHAR LATIN
ENCODING 284
SWIDTH 326 0
DWIDTH 6 0
BBX 5 9 0 0
BITMAP
20
50
70
C8
C0
D8
C8
C8
70
ENDCHAR
STARTCHAR LATIN
ENCODING 285
SWIDTH 326 0
DWIDTH 6 0
BBX 5 10 0 -2
BITMAP
20
50
00
78
D8
D8
D8
78
18
70
ENDCHAR
STARTCHAR LATIN
ENCODING 286
SWIDTH 326 0
DWIDTH 6 0
BBX 5 10 0 0
BITMAP
C8
70
00
70
C8
C0
D8
C8
C8
70
ENDCHAR
STARTCHAR LATIN
ENCODING 287
SWIDTH 326 0
DWIDTH 6 0
BBX 5 10 0 -2
BITMAP
C8
70
00
78
D8
D8
D8
78
18
70
ENDCHAR
STARTCHAR LATIN
ENCODING 288
SWIDTH 326 0
DWIDTH 6 0
BBX 5 9 0 0
BITMAP
30
00
70
C8
C0
D8
C8
C8
70
ENDCHAR
STARTCHAR LATIN
ENCODING 289
SWIDTH 326 0
DWIDTH 6 0
BBX 5 9 0 -2
BITMAP
30
00
78
D8
D8
D8
78
18
70
ENDCHAR
STARTCHAR LATIN
ENCODING 290
SWIDTH 326 0
DWIDTH 6 0
BBX 5 9 0 -2
BITMAP
70
C8
C0
D8
C8
C8
70
30
60
ENDCHAR
STARTCHAR LATIN
ENCODING 291
SWIDTH 326 0
DWIDTH 6 0
BBX 5 10 0 -2
BITMAP
30
60
00
78
D8
D8
D8
78
18
70
ENDCHAR
STARTCHAR LATIN
ENCODING 292
SWIDTH 326 0
DWIDTH 6 0
BBX 5 9 0 0
BITMAP
20
50
D8
D8
D8
F8
D8
D8
D8
ENDCHAR
STARTCHAR LATIN
ENCODING 293
SWIDTH 326 0
DWIDTH 6 0
BBX 5 9 0 0
BITMAP
20
50
C0
C0
F0
D8
D8
D8
D8
ENDCHAR
STARTCHAR LATIN
ENCODING 294
SWIDTH 326 0
DWIDTH 6 0
BBX 6 7 0 0
BITMAP
6C
FC
6C
7C
6C
6C
6C
ENDCHAR
STARTCHAR LATIN
ENCODING 295
SWIDTH 326 0
DWIDTH 6 0
BBX 5 7 0 0
BITMAP
F0
60
70
68
68
68
68
ENDCHAR
STARTCHAR LATIN
ENCODING 296
SWIDTH 326 0
DWIDTH 6 0
BBX 5 10 0 0
BITMAP
68
B0
00
78
30
30
30
30
30
78
ENDCHAR
STARTCHAR LATIN
ENCODING 297
SWIDTH 326 0
DWIDTH 6 0
BBX 5 8 0 0
BITMAP
68
B0
00
70
30
30
30
38
ENDCHAR
STARTCHAR LATIN
ENCODING 298
SWIDTH 326 0
DWIDTH 6 0
BBX 4 9 1 0
BITMAP
F0
00
F0
60
60
60
60
60
F0
ENDCHAR
STARTCHAR LATIN
ENCODING 299
SWIDTH 326 0
DWIDTH 6 0
BBX 4 7 1 0
BITMAP
E0
00
E0
60
60
60
70
ENDCHAR
STARTCHAR LATIN
ENCODING 300
SWIDTH 326 0
DWIDTH 6 0
BBX 5 10 0 0
BITMAP
C8
70
00
78
30
30
30
30
30
78
ENDCHAR
STARTCHAR LATIN
ENCODING 301
SWIDTH 326 0
DWIDTH 6 0
BBX 5 8 0 0
BITMAP
C8
70
00
70
30
30
30
38
ENDCHAR
STARTCHAR LATIN
ENCODING 302
SWIDTH 326 0
DWIDTH 6 0
BBX 4 9 1 -2
BITMAP
F0
60
60
60
60
60
F0
C0
60
ENDCHAR
STARTCHAR LATIN
ENCODING 303
SWIDTH 326 0
DWIDTH 6 0
BBX 4 9 1 -2
BITMAP
60
00
E0
60
60
60
70
C0
60
ENDCHAR
STARTCHAR LATIN
ENCODING 304
SWIDTH 326 0
DWIDTH 6 0
BBX 4 9 1 0
BITMAP
60
00
F0
60
60
60
60
60
F0
ENDCHAR
STARTCHAR LATIN
ENCODING 305
SWIDTH 326 0
DWIDTH 6 0
BBX 4 5 1 0
BITMAP
E0
60
60
60
70
ENDCHAR
STARTCHAR LATIN
ENCODING 308
SWIDTH 326 0
DWIDTH 6 0
BBX 5 9 0 0
BITMAP
20
50
18
18
18
18
D8
D8
70
ENDCHAR
STARTCHAR LATIN
ENCODING 309
SWIDTH 326 0
DWIDTH 6 0
BBX 4 10 0 -2
BITMAP
20
50
00
70
30
30
30
30
30
E0
ENDCHAR
STARTCHAR LATIN
ENCODING 310
SWIDTH 326 0
DWIDTH 6 0
BBX 5 9 0 -2
BITMAP
D8
F0
E0
C0
E0
F0
D8
30
60
ENDCHAR
STARTCHAR LATIN
ENCODING 311
SWIDTH 326 0
DWIDTH 6 0
BBX 5 9 0 -2
BITMAP
C0
C0
D0
E0
E0
F0
D8
30
60
ENDCHAR
STARTCHAR LATIN
ENCODING 312
SWIDTH 326 0
DWIDTH 6 0
BBX 4 5 0 0
BITMAP
D0
E0
C0
E0
D0
ENDCHAR
STARTCHAR LATIN
ENCODING 313
SWIDTH 326 0
DWIDTH 6 0
BBX 5 9 0 0
BITMAP
18
30
C0
C0
C0
C0
C0
C0
F8
ENDCHAR
STARTCHAR LATIN
ENCODING 314
SWIDTH 326 0
DWIDTH 6 0
BBX 5 9 0 0
BITMAP
18
30
E0
60
60
60
60
60
70
ENDCHAR
STARTCHAR LATIN
ENCODING 315
SWIDTH 326 0
DWIDTH 6 0
BBX 5 9 0 -2
BITMAP
C0
C0
C0
C0
C0
C0
F8
60
C0
ENDCHAR
STARTCHAR LATIN
ENCODING 316
SWIDTH 326 0
DWIDTH 6 0
BBX 4 9 1 -2
BITMAP
E0
60
60
60
60
60
70
30
60
ENDCHAR
STARTCHAR LATIN
ENCODING 317
SWIDTH 326 0
DWIDTH 6 0
BBX 5 9 0 0
BITMAP
18
08
C0
C0
C0
C0
C0
C0
F8
ENDCHAR
STARTCHAR LATIN
ENCODING 318
SWIDTH 326 0
DWIDTH 6 0
BBX 5 9 1 0
BITMAP
18
08
E0
60
60
60
60
60
70
ENDCHAR
STARTCHAR LATIN
ENCODING 319
SWIDTH 326 0
DWIDTH 6 0
BBX 5 7 0 0
BITMAP
C0
C0
C0
D8
C0
C0
F8
ENDCHAR
STARTCHAR LATIN
ENCODING 320
SWIDTH 326 0
DWIDTH 6 0
BBX 6 7 0 0
BITMAP
E0
60
60
6C
60
60
70
ENDCHAR
STARTCHAR LATIN
ENCODING 321
SWIDTH 326 0
DWIDTH 6 0
BBX 6 7 0 0
BITMAP
60
60
70
E0
60
60
7C
ENDCHAR
STARTCHAR LATIN
ENCODING 322
SWIDTH 326 0
DWIDTH 6 0
BBX 4 7 1 0
BITMAP
E0
60
70
60
E0
60
70
ENDCHAR
STARTCHAR LATIN
ENCODING 323
SWIDTH 326 0
DWIDTH 6 0
BBX 5 9 0 0
BITMAP
18
30
C8
C8
C8
E8
E8
D8
D8
ENDCHAR
STARTCHAR LATIN
ENCODING 324
SWIDTH 326 0
DWIDTH 6 0
BBX 5 8 0 0
BITMAP
18
30
00
B0
D8
D8
D8
D8
ENDCHAR
STARTCHAR LATIN
ENCODING 325
SWIDTH 326 0
DWIDTH 6 0
BBX 5 9 0 -2
BITMAP
C8
C8
C8
E8
E8
D8
D8
30
60
ENDCHAR
STARTCHAR LATIN
ENCODING 326
SWIDTH 326 0
DWIDTH 6 0
BBX 5 7 0 -2
BITMAP
B0
D8
D8
D8
D8
30
60
ENDCHAR
STARTCHAR LATIN
ENCODING 327
SWIDTH 326 0
DWIDTH 6 0
BBX 5 9 0 0
BITMAP
50
20
C8
C8
C8
E8
E8
D8
D8
ENDCHAR
STARTCHAR LATIN
ENCODING 328
SWIDTH 326 0
DWIDTH 6 0
BBX 5 8 0 0
BITMAP
50
20
00
B0
D8
D8
D8
D8
ENDCHAR
STARTCHAR LATIN
ENCODING 329
SWIDTH 326 0
DWIDTH 6 0
BBX 5 8 0 0
BITMAP
C0
40
00
B0
D8
D8
D8
D8
ENDCHAR
STARTCHAR LATIN
ENCODING 330
SWIDTH 326 0
DWIDTH 6 0
BBX 5 9 0 -2
BITMAP
C8
C8
C8
E8
E8
D8
D8
30
60
ENDCHAR
STARTCHAR LATIN
ENCODING 331
SWIDTH 326 0
DWIDTH 6 0
BBX 5 7 0 -2
BITMAP
B0
D8
D8
D8
D8
30
60
ENDCHAR
STARTCHAR LATIN
ENCODING 332
SWIDTH 326 0
DWIDTH 6 0
BBX 5 9 0 0
BITMAP
F8
00
70
D8
D8
D8
D8
D8
70
ENDCHAR
STARTCHAR LATIN
ENCODING 333
SWIDTH 326 0
DWIDTH 6 0
BBX 5 7 0 0
BITMAP
F8
00
70
D8
D8
D8
70
ENDCHAR
STARTCHAR LATIN
ENCODING 334
SWIDTH 326 0
DWIDTH 6 0
BBX 5 10 0 0
BITMAP
C8
70
00
70
D8
D8
D8
D8
D8
70
ENDCHAR
STARTCHAR LATIN
ENCODING 335
SWIDTH 326 0
DWIDTH 6 0
BBX 5 8 0 0
BITMAP
C8
70
00
70
D8
D8
D8
70
ENDCHAR
STARTCHAR LATIN
ENCODING 336
SWIDTH 326 0
DWIDTH 6 0
BBX 6 9 0 0
BITMAP
6C
D8
70
D8
D8
D8
D8
D8
70
ENDCHAR
STARTCHAR LATIN
ENCODING 337
SWIDTH 326 0
DWIDTH 6 0
BBX 6 8 0 0
BITMAP
6C
D8
00
70
D8
D8
D8
70
ENDCHAR
STARTCHAR LATIN
ENCODING 338
SWIDTH 326 0
DWIDTH 6 0
BBX 6 7 0 0
BITMAP
7C
D0
D0
D8
D0
D0
7C
ENDCHAR
STARTCHAR LATIN
ENCODING 339
SWIDTH 326 0
DWIDTH 6 0
BBX 6 5 0 0
BITMAP
78
D4
DC
D0
7C
ENDCHAR
STARTCHAR LATIN
ENCODING 340
SWIDTH 326 0
DWIDTH 6 0
BBX 5 9 0 0
BITMAP
30
60
F0
D8
D8
F0
D8
D8
D8
ENDCHAR
STARTCHAR LATIN
ENCODING 341
SWIDTH 326 0
DWIDTH 6 0
BBX 5 8 0 0
BITMAP
30
60
00
B0
D8
C0
C0
C0
ENDCHAR
STARTCHAR LATIN
ENCODING 342
SWIDTH 326 0
DWIDTH 6 0
BBX 5 9 0 -2
BITMAP
F0
D8
D8
F0
D8
D8
D8
30
60
ENDCHAR
STARTCHAR LATIN
ENCODING 343
SWIDTH 326 0
DWIDTH 6 0
BBX 5 7 0 -2
BITMAP
B0
D8
C0
C0
C0
30
60
ENDCHAR
STARTCHAR LATIN
ENCODING 344
SWIDTH 326 0
DWIDTH 6 0
BBX 5 9 0 0
BITMAP
50
20
F0
D8
D8
F0
D8
D8
D8
ENDCHAR
STARTCHAR LATIN
ENCODING 345
SWIDTH 326 0
DWIDTH 6 0
BBX 5 8 0 0
BITMAP
50
20
00
B0
D8
C0
C0
C0
ENDCHAR
STARTCHAR LATIN
ENCODING 346
SWIDTH 326 0
DWIDTH 6 0
BBX 5 9 0 0
BITMAP
60
C0
70
D8
C0
70
18
D8
70
ENDCHAR
STARTCHAR LATIN
ENCODING 347
SWIDTH 326 0
DWIDTH 6 0
BBX 5 8 0 0
BITMAP
30
60
00
78
C0
70
18
F0
ENDCHAR
STARTCHAR LATIN
ENCODING 348
SWIDTH 326 0
DWIDTH 6 0
BBX 5 9 0 0
BITMAP
20
50
70
C8
C0
70
18
98
70
ENDCHAR
STARTCHAR LATIN
ENCODING 349
SWIDTH 326 0
DWIDTH 6 0
BBX 5 8 0 0
BITMAP
20
50
00
78
C0
70
18
F0
ENDCHAR
STARTCHAR LATIN
ENCODING 350
SWIDTH 326 0
DWIDTH 6 0
BBX 5 9 0 -2
BITMAP
70
D8
C0
70
18
D8
70
30
60
ENDCHAR
STARTCHAR LATIN
ENCODING 351
SWIDTH 326 0
DWIDTH 6 0
BBX 5 7 0 -2
BITMAP
78
C0
70
18
F0
30
60
ENDCHAR
STARTCHAR LATIN
ENCODING 352
SWIDTH 326 0
DWIDTH 6 0
BBX 5 9 0 0
BITMAP
50
20
70
C8
C0
70
18
98
70
ENDCHAR
STARTCHAR LATIN
ENCODING 353
SWIDTH 326 0
DWIDTH 6 0
BBX 5 8 0 0
BITMAP
50
20
00
78
C0
70
18
F0
ENDCHAR
STARTCHAR LATIN
ENCODING 354
SWIDTH 326 0
DWIDTH 6 0
BBX 6 9 0 -2
BITMAP
FC
30
30
30
30
30
30
18
30
ENDCHAR
STARTCHAR LATIN
ENCODING 355
SWIDTH 326 0
DWIDTH 6 0
BBX 4 9 1 -2
BITMAP
60
60
F0
60
60
60
30
60
C0
ENDCHAR
STARTCHAR LATIN
ENCODING 356
SWIDTH 326 0
DWIDTH 6 0
BBX 6 9 0 0
BITMAP
50
20
FC
30
30
30
30
30
30
ENDCHAR
STARTCHAR LATIN
ENCODING 357
SWIDTH 326 0
DWIDTH 6 0
BBX 5 9 1 0
BITMAP
18
08
60
60
F0
60
60
60
30
ENDCHAR
STARTCHAR LATIN
ENCODING 358
SWIDTH 326 0
DWIDTH 6 0
BBX 6 7 0 0
BITMAP
FC
30
30
FC
30
30
30
ENDCHAR
STARTCHAR LATIN
ENCODING 359
SWIDTH 326 0
DWIDTH 6 0
BBX 4 7 1 0
BITMAP
60
60
F0
60
F0
60
30
ENDCHAR
STARTCHAR LATIN
ENCODING 360
SWIDTH 326 0
DWIDTH 6 0
BBX 5 10 0 0
BITMAP
68
B0
00
D8
D8
D8
D8
D8
D8
70
ENDCHAR
STARTCHAR LATIN
ENCODING 361
SWIDTH 326 0
DWIDTH 6 0
BBX 5 8 0 0
BITMAP
68
B0
00
D8
D8
D8
D8
68
ENDCHAR
STARTCHAR LATIN
ENCODING 362
SWIDTH 326 0
DWIDTH 6 0
BBX 5 9 0 0
BITMAP
F8
00
D8
D8
D8
D8
D8
D8
70
ENDCHAR
STARTCHAR LATIN
ENCODING 363
SWIDTH 326 0
DWIDTH 6 0
BBX 5 7 0 0
BITMAP
F8
00
D8
D8
D8
D8
68
ENDCHAR
STARTCHAR LATIN
ENCODING 364
SWIDTH 326 0
DWIDTH 6 0
BBX 5 10 0 0
BITMAP
88
70
00
D8
D8
D8
D8
D8
D8
70
ENDCHAR
STARTCHAR LATIN
ENCODING 365
SWIDTH 326 0
DWIDTH 6 0
BBX 5 8 0 0
BITMAP
88
70
00
D8
D8
D8
D8
68
ENDCHAR
STARTCHAR LATIN
ENCODING 366
SWIDTH 326 0
DWIDTH 6 0
BBX 5 9 0 0
BITMAP
20
50
F8
D8
D8
D8
D8
D8
70
ENDCHAR
STARTCHAR LATIN
ENCODING 367
SWIDTH 326 0
DWIDTH 6 0
BBX 5 8 0 0
BITMAP
20
50
20
D8
D8
D8
D8
68
ENDCHAR
STARTCHAR LATIN
ENCODING 368
SWIDTH 326 0
DWIDTH 6 0
BBX 6 9 0 0
BITMAP
6C
D8
D8
D8
D8
D8
D8
D8
70
ENDCHAR
STARTCHAR LATIN
ENCODING 369
SWIDTH 326 0
DWIDTH 6 0
BBX 6 8 0 0
BITMAP
6C
D8
00
D8
D8
D8
D8
68
ENDCHAR
STARTCHAR LATIN
ENCODING 370
SWIDTH 326 0
DWIDTH 6 0
BBX 5 9 0 -2
BITMAP
D8
D8
D8
D8
D8
D8
70
60
30
ENDCHAR
STARTCHAR LATIN
ENCODING 371
SWIDTH 326 0
DWIDTH 6 0
BBX 5 7 0 -2
BITMAP
D8
D8
D8
D8
68
30
18
ENDCHAR
STARTCHAR LATIN
ENCODING 372
SWIDTH 326 0
DWIDTH 6 0
BBX 5 9 0 0
BITMAP
20
50
D8
D8
F8
F8
F8
D8
88
ENDCHAR
STARTCHAR LATIN
ENCODING 373
SWIDTH 326 0
DWIDTH 6 0
BBX 6 8 0 0
BITMAP
20
50
00
C4
D4
D4
D4
68
ENDCHAR
STARTCHAR LATIN
ENCODING 374
SWIDTH 326 0
DWIDTH 6 0
BBX 6 9 0 0
BITMAP
20
50
EC
68
68
78
30
30
30
ENDCHAR
STARTCHAR LATIN
ENCODING 375
SWIDTH 326 0
DWIDTH 6 0
BBX 5 10 0 -2
BITMAP
20
50
00
D8
D8
D8
D8
78
18
70
ENDCHAR
STARTCHAR LATIN
ENCODING 376
SWIDTH 326 0
DWIDTH 6 0
BBX 6 9 0 0
BITMAP
50
00
EC
68
68
78
30
30
30
ENDCHAR
STARTCHAR LATIN
ENCODING 377
SWIDTH 326 0
DWIDTH 6 0
BBX 5 9 0 0
BITMAP
10
20
F8
18
30
60
60
C0
F8
ENDCHAR
STARTCHAR LATIN
ENCODING 378
SWIDTH 326 0
DWIDTH 6 0
BBX 5 8 0 0
BITMAP
10
20
00
F8
18
70
C0
F8
ENDCHAR
STARTCHAR LATIN
ENCODING 379
SWIDTH 326 0
DWIDTH 6 0
BBX 5 9 0 0
BITMAP
20
00
F8
18
30
60
60
C0
F8
ENDCHAR
STARTCHAR LATIN
ENCODING 380
SWIDTH 326 0
DWIDTH 6 0
BBX 5 7 0 0
BITMAP
20
00
F8
18
70
C0
F8
ENDCHAR
STARTCHAR LATIN
ENCODING 381
SWIDTH 326 0
DWIDTH 6 0
BBX 5 9 0 0
BITMAP
50
20
F8
18
30
60
60
C0
F8
ENDCHAR
STARTCHAR LATIN
ENCODING 382
SWIDTH 326 0
DWIDTH 6 0
BBX 5 8 0 0
BITMAP
50
20
00
F8
18
70
C0
F8
ENDCHAR
STARTCHAR LATIN
ENCODING 383
SWIDTH 326 0
DWIDTH 6 0
BBX 4 7 1 0
BITMAP
30
60
E0
60
60
60
60
ENDCHAR
STARTCHAR LATIN
ENCODING 384
SWIDTH 326 0
DWIDTH 6 0
BBX 5 7 0 0
BITMAP
F0
60
70
68
68
68
70
ENDCHAR
STARTCHAR LATIN
ENCODING 385
SWIDTH 326 0
DWIDTH 6 0
BBX 5 7 0 0
BITMAP
F0
68
68
70
68
68
70
ENDCHAR
STARTCHAR LATIN
ENCODING 386
SWIDTH 326 0
DWIDTH 6 0
BBX 6 8 0 0
BITMAP
F8
C8
C0
F8
CC
CC
CC
F8
ENDCHAR
STARTCHAR LATIN
ENCODING 387
SWIDTH 326 0
DWIDTH 6 0
BBX 5 8 0 0
BITMAP
F0
D0
C0
F0
D8
D8
D8
F0
ENDCHAR
STARTCHAR LATIN
ENCODING 388
SWIDTH 326 0
DWIDTH 6 0
BBX 6 8 0 0
BITMAP
60
E0
60
78
6C
6C
6C
78
ENDCHAR
STARTCHAR LATIN
ENCODING 389
SWIDTH 326 0
DWIDTH 6 0
BBX 5 8 1 0
BITMAP
60
E0
60
70
68
68
68
70
ENDCHAR
STARTCHAR LATIN
ENCODING 390
SWIDTH 326 0
DWIDTH 6 0
BBX 5 7 0 0
BITMAP
70
D8
18
18
18
D8
70
ENDCHAR
STARTCHAR LATIN
ENCODING 391
SWIDTH 326 0
DWIDTH 6 0
BBX 6 7 0 0
BITMAP
74
D8
C0
C0
C0
D8
70
ENDCHAR
STARTCHAR LATIN
ENCODING 392
SWIDTH 326 0
DWIDTH 6 0
BBX 6 7 0 0
BITMAP
0C
04
70
D8
C0
C0
78
ENDCHAR
STARTCHAR LATIN
ENCODING 393
SWIDTH 326 0
DWIDTH 6 0
BBX 5 7 0 0
BITMAP
70
68
68
F8
68
68
70
ENDCHAR
STARTCHAR LATIN
ENCODING 394
SWIDTH 326 0
DWIDTH 6 0
BBX 5 7 0 0
BITMAP
F0
68
68
68
68
68
70
ENDCHAR
STARTCHAR LATIN
ENCODING 395
SWIDTH 326 0
DWIDTH 6 0
BBX 6 8 0 0
BITMAP
7C
4C
0C
7C
CC
CC
CC
7C
ENDCHAR
STARTCHAR LATIN
ENCODING 396
SWIDTH 326 0
DWIDTH 6 0
BBX 5 8 0 0
BITMAP
78
58
18
78
D8
D8
D8
78
ENDCHAR
STARTCHAR LATIN
ENCODING 397
SWIDTH 326 0
DWIDTH 6 0
BBX 5 8 0 0
BITMAP
70
D8
D8
D8
70
60
30
F8
ENDCHAR
STARTCHAR LATIN
ENCODING 398
SWIDTH 326 0
DWIDTH 6 0
BBX 5 7 0 0
BITMAP
F8
98
98
78
18
18
F8
ENDCHAR
STARTCHAR LATIN
ENCODING 399
SWIDTH 326 0
DWIDTH 6 0
BBX 5 7 0 0
BITMAP
70
D8
18
F8
D8
D8
70
ENDCHAR
STARTCHAR LATIN
ENCODING 400
SWIDTH 326 0
DWIDTH 6 0
BBX 5 7 0 0
BITMAP
70
D8
C0
70
C0
D8
70
ENDCHAR
STARTCHAR LATIN
ENCODING 401
SWIDTH 326 0
DWIDTH 6 0
BBX 6 9 0 -2
BITMAP
7C
60
60
78
60
60
60
60
C0
ENDCHAR
STARTCHAR LATIN
ENCODING 402
SWIDTH 326 0
DWIDTH 6 0
BBX 6 10 0 -1
BITMAP
1C
30
30
30
78
30
30
30
30
E0
ENDCHAR
STARTCHAR LATIN
ENCODING 403
SWIDTH 326 0
DWIDTH 6 0
BBX 6 7 0 0
BITMAP
68
D4
C0
D8
C8
C8
70
ENDCHAR
STARTCHAR LATIN
ENCODING 404
SWIDTH 326 0
DWIDTH 6 0
BBX 5 9 0 -2
BITMAP
C8
C8
C8
70
70
20
70
70
20
ENDCHAR
STARTCHAR LATIN
ENCODING 405
SWIDTH 326 0
DWIDTH 6 0
BBX 6 7 0 0
BITMAP
C0
C0
E0
F4
D4
DC
C8
ENDCHAR
STARTCHAR LATIN
ENCODING 406
SWIDTH 326 0
DWIDTH 6 0
BBX 4 7 1 0
BITMAP
C0
C0
C0
C0
D0
F0
60
ENDCHAR
STARTCHAR LATIN
ENCODING 407
SWIDTH 326 0
DWIDTH 6 0
BBX 4 7 1 0
BITMAP
F0
60
60
F0
60
60
F0
ENDCHAR
STARTCHAR LATIN
ENCODING 408
SWIDTH 326 0
DWIDTH 6 0
BBX 6 7 0 0
BITMAP
D8
F4
E0
C0
E0
F0
D8
ENDCHAR
STARTCHAR LATIN
ENCODING 409
SWIDTH 326 0
DWIDTH 6 0
BBX 5 8 0 0
BITMAP
70
C0
C0
D8
F0
E0
F0
D8
ENDCHAR
STARTCHAR LATIN
ENCODING 410
SWIDTH 326 0
DWIDTH 6 0
BBX 4 7 1 0
BITMAP
E0
60
60
F0
60
60
70
ENDCHAR
STARTCHAR LATIN
ENCODING 411
SWIDTH 326 0
DWIDTH 6 0
BBX 6 8 0 0
BITMAP
60
60
F0
30
78
78
CC
CC
ENDCHAR
STARTCHAR LATIN
ENCODING 412
SWIDTH 326 0
DWIDTH 6 0
BBX 6 5 0 0
BITMAP
D4
D4
D4
D4
7C
ENDCHAR
STARTCHAR LATIN
ENCODING 413
SWIDTH 326 0
DWIDTH 6 0
BBX 6 8 0 -1
BITMAP
64
64
74
74
7C
6C
6C
80
ENDCHAR
STARTCHAR LATIN
ENCODING 414
SWIDTH 326 0
DWIDTH 6 0
BBX 5 8 0 -3
BITMAP
B0
D8
D8
D8
D8
18
18
30
ENDCHAR
STARTCHAR LATIN
ENCODING 415
SWIDTH 326 0
DWIDTH 6 0
BBX 5 5 0 1
BITMAP
70
D8
F8
D8
70
ENDCHAR
STARTCHAR LATIN
ENCODING 416
SWIDTH 326 0
DWIDTH 6 0
BBX 6 9 0 0
BITMAP
04
04
74
D8
D8
D8
D8
D8
70
ENDCHAR
STARTCHAR LATIN
ENCODING 417
SWIDTH 326 0
DWIDTH 6 0
BBX 5 7 0 0
BITMAP
08
08
70
D8
D8
D8
70
ENDCHAR
STARTCHAR LATIN
ENCODING 418
SWIDTH 326 0
DWIDTH 6 0
BBX 6 7 0 0
BITMAP
68
D4
D4
D4
D4
D4
64
ENDCHAR
STARTCHAR LATIN
ENCODING 419
SWIDTH 326 0
DWIDTH 6 0
BBX 6 5 0 0
BITMAP
68
D4
D4
D4
64
ENDCHAR
STARTCHAR LATIN
ENCODING 420
SWIDTH 326 0
DWIDTH 6 0
BBX 6 7 0 0
BITMAP
F8
6C
6C
78
60
60
60
ENDCHAR
STARTCHAR LATIN
ENCODING 421
SWIDTH 326 0
DWIDTH 6 0
BBX 6 9 0 -2
BITMAP
38
6C
F0
D8
D8
D8
F0
C0
C0
ENDCHAR
STARTCHAR LATIN
ENCODING 422
SWIDTH 326 0
DWIDTH 6 0
BBX 5 9 0 -1
BITMAP
C0
C0
F0
D8
D8
F0
F0
D8
08
ENDCHAR
STARTCHAR LATIN
ENCODING 423
SWIDTH 326 0
DWIDTH 6 0
BBX 5 7 0 0
BITMAP
70
D8
18
70
C0
D8
70
ENDCHAR
STARTCHAR LATIN
ENCODING 424
SWIDTH 326 0
DWIDTH 6 0
BBX 5 5 0 0
BITMAP
F0
18
70
C0
78
ENDCHAR
STARTCHAR LATIN
ENCODING 425
SWIDTH 326 0
DWIDTH 6 0
BBX 5 7 0 0
BITMAP
F8
C0
60
30
60
C0
F8
ENDCHAR
STARTCHAR LATIN
ENCODING 426
SWIDTH 326 0
DWIDTH 6 0
BBX 5 9 0 -1
BITMAP
40
B0
70
30
30
30
30
30
18
ENDCHAR
STARTCHAR LATIN
ENCODING 427
SWIDTH 326 0
DWIDTH 6 0
BBX 5 9 1 -2
BITMAP
60
60
F0
60
60
60
30
18
30
ENDCHAR
STARTCHAR LATIN
ENCODING 428
SWIDTH 326 0
DWIDTH 6 0
BBX 6 7 0 0
BITMAP
FC
34
30
30
30
30
30
ENDCHAR
STARTCHAR LATIN
ENCODING 429
SWIDTH 326 0
DWIDTH 6 0
BBX 4 8 1 0
BITMAP
30
60
60
F0
60
60
60
30
ENDCHAR
STARTCHAR LATIN
ENCODING 430
SWIDTH 326 0
DWIDTH 6 0
BBX 6 7 0 0
BITMAP
FC
B4
30
30
30
30
30
ENDCHAR
STARTCHAR LATIN
ENCODING 431
SWIDTH 326 0
DWIDTH 6 0
BBX 6 9 0 0
BITMAP
04
04
D8
D8
D8
D8
D8
D8
70
ENDCHAR
STARTCHAR LATIN
ENCODING 432
SWIDTH 326 0
DWIDTH 6 0
BBX 6 7 0 0
BITMAP
04
04
D8
D8
D8
D8
68
ENDCHAR
STARTCHAR LATIN
ENCODING 433
SWIDTH 326 0
DWIDTH 6 0
BBX 5 7 0 0
BITMAP
F8
70
D8
D8
D8
D8
70
ENDCHAR
STARTCHAR LATIN
ENCODING 434
SWIDTH 326 0
DWIDTH 6 0
BBX 5 8 0 0
BITMAP
30
D8
D8
D8
D8
D8
D8
70
ENDCHAR
STARTCHAR LATIN
ENCODING 462
SWIDTH 326 0
DWIDTH 6 0
BBX 5 8 0 0
BITMAP
50
20
00
70
18
78
D8
78
ENDCHAR
STARTCHAR LATIN
ENCODING 479
SWIDTH 326 0
DWIDTH 6 0
BBX 5 9 0 0
BITMAP
F8
00
D8
00
70
18
78
D8
78
ENDCHAR
STARTCHAR LATIN
ENCODING 481
SWIDTH 326 0
DWIDTH 6 0
BBX 5 9 0 0
BITMAP
70
00
20
00
70
18
78
D8
78
ENDCHAR
STARTCHAR LATIN
ENCODING 507
SWIDTH 326 0
DWIDTH 6 0
BBX 5 9 0 0
BITMAP
10
20
50
20
70
18
78
D8
78
ENDCHAR
STARTCHAR LATIN
ENCODING 513
SWIDTH 326 0
DWIDTH 6 0
BBX 5 8 0 0
BITMAP
A0
50
00
70
18
78
D8
78
ENDCHAR
STARTCHAR LATIN
ENCODING 515
SWIDTH 326 0
DWIDTH 6 0
BBX 5 8 0 0
BITMAP
70
D8
00
70
18
78
D8
78
ENDCHAR
STARTCHAR LATIN
ENCODING 551
SWIDTH 326 0
DWIDTH 6 0
BBX 5 7 0 0
BITMAP
20
00
70
18
78
D8
78
ENDCHAR
STARTCHAR LATIN
ENCODING 592
SWIDTH 326 0
DWIDTH 6 0
BBX 5 5 0 0
BITMAP
F0
D8
F0
C0
70
ENDCHAR
STARTCHAR LATIN
ENCODING 7681
SWIDTH 326 0
DWIDTH 6 0
BBX 5 8 0 -3
BITMAP
70
18
78
D8
78
20
50
20
ENDCHAR
STARTCHAR LATIN
ENCODING 7841
SWIDTH 326 0
DWIDTH 6 0
BBX 5 7 0 -2
BITMAP
70
18
78
D8
78
00
20
ENDCHAR
STARTCHAR LATIN
ENCODING 7843
SWIDTH 326 0
DWIDTH 6 0
BBX 5 9 0 0
BITMAP
20
50
10
20
70
18
78
D8
78
ENDCHAR
STARTCHAR LATIN
ENCODING 7845
SWIDTH 326 0
DWIDTH 6 0
BBX 5 8 0 0
BITMAP
48
B0
00
70
18
78
D8
78
ENDCHAR
STARTCHAR LATIN
ENCODING 7847
SWIDTH 326 0
DWIDTH 6 0
BBX 5 8 0 0
BITMAP
90
68
00
70
18
78
D8
78
ENDCHAR
ENDFONT
